<?xml version="1.0" standalone="no"?><!DOCTYPE svg PUBLIC "-//W3C//DTD SVG 1.1//EN" "http://www.w3.org/Graphics/SVG/1.1/DTD/svg11.dtd"><svg t="1557967744401" class="icon" style="" viewBox="0 0 1152 1024" version="1.1" xmlns="http://www.w3.org/2000/svg" p-id="13389" xmlns:xlink="http://www.w3.org/1999/xlink" width="225" height="200"><defs><style type="text/css"></style></defs><path d="M831.914144 447.95377V127.986791c0-70.592715-57.394077-127.986791-127.986792-127.986791H127.986791C57.394077 0 0 57.394077 0 127.986791v319.966979c0 70.592715 57.394077 127.986791 127.986791 127.986791v108.388814c0 15.998349 18.198122 25.1974 30.996801 15.59839l165.582912-124.187183H703.927352c70.592715 0.199979 127.986791-57.194097 127.986792-127.786812z m191.980187-127.986792h-127.986791v127.986792c0 105.789082-86.191105 191.980187-191.980188 191.980187H383.960374v127.986791c0 70.592715 57.394077 127.986791 127.986791 127.986792h251.374058l165.582911 124.187183c12.798679 9.599009 30.996801 0.399959 30.996801-15.59839V895.90754h63.993396c70.592715 0 127.986791-57.394077 127.986791-127.986792V447.95377c0-70.592715-57.394077-127.986791-127.986791-127.986792z" p-id="13390" fill="#969696"></path></svg>