<?xml version="1.0" standalone="no"?><!DOCTYPE svg PUBLIC "-//W3C//DTD SVG 1.1//EN" "http://www.w3.org/Graphics/SVG/1.1/DTD/svg11.dtd"><svg t="1557985719974" class="icon" style="" viewBox="0 0 1024 1024" version="1.1" xmlns="http://www.w3.org/2000/svg" p-id="2194" xmlns:xlink="http://www.w3.org/1999/xlink" width="200" height="200"><defs><style type="text/css"></style></defs><path d="M379.428571 512a128 128 0 1 0 256 0 128 128 0 1 0-256 0z m624.228572-29.485714C895.314286 254.285714 731.542857 139.428571 512 139.428571c-219.657143 0-383.314286 114.857143-491.657143 343.2a68.914286 68.914286 0 0 0 0 58.857143C128.685714 769.714286 292.457143 884.571429 512 884.571429c219.657143 0 383.314286-114.857143 491.657143-343.2 8.8-18.514286 8.8-40 0-58.857143zM507.428571 713.142857c-111.085714 0-201.142857-90.057143-201.142857-201.142857s90.057143-201.142857 201.142857-201.142857 201.142857 90.057143 201.142858 201.142857-90.057143 201.142857-201.142858 201.142857z" p-id="2195" fill="#969696"></path></svg>