<?xml version="1.0" standalone="no"?><!DOCTYPE svg PUBLIC "-//W3C//DTD SVG 1.1//EN" "http://www.w3.org/Graphics/SVG/1.1/DTD/svg11.dtd"><svg t="1557907808032" class="icon" style="" viewBox="0 0 1024 1024" version="1.1" xmlns="http://www.w3.org/2000/svg" p-id="2215" xmlns:xlink="http://www.w3.org/1999/xlink" width="200" height="200"><defs><style type="text/css"></style></defs><path d="M892.8 147.2c-3.2-6.4-9.6-12.8-16-16-3.2-3.2-9.6-3.2-12.8-3.2H544c-19.2 0-32 12.8-32 32s12.8 32 32 32h243.2l-192 192c-48-38.4-112-64-179.2-64-160 0-288 128-288 288s128 288 288 288 288-128 288-288c0-67.2-22.4-131.2-64-179.2l192-192V480c0 19.2 12.8 32 32 32s32-12.8 32-32V160c0-3.2 0-9.6-3.2-12.8zM416 832c-124.8 0-224-99.2-224-224s99.2-224 224-224 224 99.2 224 224-99.2 224-224 224z" p-id="2216" fill="#3194d0"></path></svg>