<?xml version="1.0" standalone="no"?><!DOCTYPE svg PUBLIC "-//W3C//DTD SVG 1.1//EN" "http://www.w3.org/Graphics/SVG/1.1/DTD/svg11.dtd"><svg t="1557815690100" class="icon" style="" viewBox="0 0 1024 1024" version="1.1" xmlns="http://www.w3.org/2000/svg" p-id="2970" xmlns:xlink="http://www.w3.org/1999/xlink" width="200" height="200"><defs><style type="text/css"></style></defs><path d="M512 1024c-128 0-236.8-44.8-326.4-121.6L64 1024v-320h320l-108.8 108.8c64 51.2 147.2 83.2 236.8 83.2 211.2 0 384-172.8 384-384 0-38.4 25.6-64 64-64s64 25.6 64 64c0 281.6-230.4 512-512 512z m332.8-704H640l108.8-108.8C684.8 160 601.6 128 512 128 300.8 128 128 300.8 128 512c0 38.4-25.6 64-64 64s-64-25.6-64-64c0-281.6 230.4-512 512-512 128 0 236.8 44.8 326.4 121.6L960 0v320h-115.2z" fill="#969696" p-id="2971"></path></svg>