<?xml version="1.0" standalone="no"?><!DOCTYPE svg PUBLIC "-//W3C//DTD SVG 1.1//EN" "http://www.w3.org/Graphics/SVG/1.1/DTD/svg11.dtd"><svg t="1558075534839" class="icon" style="" viewBox="0 0 1024 1024" version="1.1" xmlns="http://www.w3.org/2000/svg" p-id="9578" xmlns:xlink="http://www.w3.org/1999/xlink" width="200" height="200"><defs><style type="text/css"></style></defs><path d="M974.691815 485.030587l-1.070399-4.979685c-8.726083-48.610099-38.860155-91.216652-198.279871-74.322956-32.972958 3.490433-58.150616-2.652729-75.090851-18.2666-25.014771-23.083398-26.922874-61.408353-27.039222-69.203654 3.909285-21.547607 30.971777-181.479253-12.774985-263.760396-29.482525-55.567695-98.523292-65.666682-148.343408-43.420988-49.331455 22.129346-70.204245 70.180975-51.891106 119.558969 36.812435 99.384266-19.686043 195.161751-73.531791 258.012816-66.27169 77.25492-157.488342 72.298505-162.81707 72.065809L111.065582 460.713903c-0.232696 0-0.418852 0.116348-0.628278 0.116348-0.232696 0-0.418852-0.093078-0.628278-0.093078-25.829205 1.419443-64.293778 19.150843-64.293778 62.152979l0 360.864246c-0.02327 3.67659 0.325774 36.393583 22.687815 54.962687 6.911058 5.74758 17.940826 11.751125 33.764123 11.751125 3.699859 0 7.795301-0.488661 12.053629-1.233286 0.186156-0.02327 0.349043 0.046539 0.51193 0.02327 0.209426-0.02327 0.628278-0.116348 0.907513-0.162887 0.046539 0 0.093078 0 0.139617 0 0.02327 0 0.02327 0 0.046539-0.02327 1.279825-0.232696 3.071581-0.581739 5.701041-1.186747 88.261419-19.499886 132.799346-7.050675 154.602918 6.841249 65.899377 41.955006 174.661273 53.799209 180.804436 54.380948l294.33659 11.169386c8.702813 2.233877 19.406808 3.746398 31.064855 3.746398 36.928782 0 83.281734-15.288097 105.131846-71.902922 12.239785-31.879289 4.863337-55.335-3.490433-69.41308-1.256556-2.09426-2.652729-4.048902-4.072172-5.980275 22.222424-13.356724 38.301686-36.998591 47.702586-70.716175 9.214743-32.90315 3.001772-59.290824-9.796482-79.535336 10.797073-2.140799 21.152025-5.794119 29.76176-12.053629 13.356724-9.703404 21.035677-23.851293 22.222424-40.907876 2.955233-42.839249-6.236241-74.695269-26.853065-95.242285C988.211426 546.206245 978.857065 503.576421 974.691815 485.030587z" p-id="9579" fill="#EA6F5A"></path></svg>