<?xml version="1.0" standalone="no"?><!DOCTYPE svg PUBLIC "-//W3C//DTD SVG 1.1//EN" "http://www.w3.org/Graphics/SVG/1.1/DTD/svg11.dtd"><svg t="1557989943176" class="icon" style="" viewBox="0 0 1024 1024" version="1.1" xmlns="http://www.w3.org/2000/svg" p-id="2995" xmlns:xlink="http://www.w3.org/1999/xlink" width="200" height="200"><defs><style type="text/css"></style></defs><path d="M976.03128889 287.75765333l-280.82176-275.32401778C688.29184 5.66158222 679.26243555 2.27555555 669.32280889 2.02069333c-9.68476445 0.10922667-18.93262222 4.04138667-25.66826667 10.95907556L121.18698667 548.19043555c-5.02442667 5.13365333-8.41045333 11.68725333-9.75758222 18.7141689L40.94179555 943.11765333C38.68444445 955.16899555 42.61660445 967.51160889 51.42755555 975.99488c6.84487111 6.66282667 15.94709333 10.23089778 25.30417778 10.23089778 2.62144 0 5.31569778-0.29127111 7.93713778-0.87381333l332.74083556-74.20131556c6.95409778-1.52917333 13.32565333-5.13365333 18.27726222-10.26730667l541.10890666-561.86197333C990.63125333 324.60344889 990.30357333 301.73866667 976.03128889 287.75765333zM423.01667555 809.06012445l-139.40963555-138.20814223c-14.30869333-14.19946667-37.39192889-14.09024-51.48216889 0.21845333-14.16305778 14.30869333-14.05383111 37.31911111 0.21845334 51.4821689l127.86801777 126.73934222L122.67975111 902.30328889l58.32704-311.15036444L670.30584889 89.98456889l228.97550222 224.49720889L423.01667555 809.06012445z" p-id="2996" fill="#969696"></path></svg>